<svg version="1.1" id="Layer_1" xmlns="http://www.w3.org/2000/svg" xmlns:xlink="http://www.w3.org/1999/xlink" x="0px" y="0px"
	 width="100%" viewBox="0 0 90 69" enable-background="new 0 0 90 69" xml:space="preserve">
<path fill="#5B9BD4" opacity="1.000000" stroke="none" 
	d="
M1.000000,58.000000 
	C1.000000,55.299370 1.000000,52.598740 1.426216,49.440750 
	C5.923690,48.315708 9.994947,47.648029 14.410966,47.001221 
	C16.845011,47.294056 18.934294,47.566029 21.371140,47.899246 
	C22.527887,47.665550 23.337072,47.370605 24.338470,47.028244 
	C24.530682,46.980824 24.926561,46.988068 25.178474,47.266632 
	C26.927860,47.716896 28.425335,47.888596 30.145859,48.314247 
	C31.246973,48.684662 32.125034,48.801128 33.335716,48.940575 
	C34.112408,48.949280 34.556473,48.935013 35.461502,48.945129 
	C38.241852,48.973549 40.582706,49.163467 42.871113,48.899181 
	C43.933693,48.776463 45.775288,47.754330 45.764404,47.167728 
	C45.659206,41.495617 45.235085,35.829418 44.926292,30.108414 
	C44.950512,30.055296 45.013042,29.960443 44.998779,29.707699 
	C44.970127,29.286804 44.955738,29.118652 44.971947,28.966711 
	C45.002552,28.982920 44.934044,28.975834 45.219559,28.775259 
	C45.653053,27.667986 45.801033,26.761286 45.937881,25.545601 
	C45.582394,24.493813 45.238041,23.751007 44.932861,22.755444 
	C44.983227,22.332531 44.994411,22.162380 45.308865,21.705257 
	C45.737648,15.618877 45.863163,9.819468 46.458344,4.014754 
	C60.686241,4.009449 74.444473,4.009449 88.163391,4.009449 
	C88.823692,5.934327 89.341415,7.443571 89.895813,9.291879 
	C89.904869,10.084058 89.877266,10.537173 89.511513,11.072268 
	C88.939445,11.370916 88.499146,11.589375 88.500999,11.804003 
	C88.644737,28.390347 88.897827,44.976345 88.907372,61.562508 
	C88.908600,63.706444 87.663895,65.851097 86.597794,67.996254 
	C84.481293,68.283852 82.763344,68.570618 80.575577,68.897987 
	C71.411179,68.911865 62.716587,68.885132 54.011574,68.535721 
	C53.989338,67.782936 53.977524,67.352829 53.961639,66.671928 
	C53.932056,66.255859 53.906544,66.090591 53.929756,65.515121 
	C53.946468,63.449516 53.914452,61.794113 53.802692,59.864014 
	C53.203568,59.416859 52.684189,59.244404 51.769501,59.051529 
	C50.582603,59.021351 49.791016,59.011581 48.824638,58.775307 
	C48.097992,59.047928 47.546143,59.547054 46.742653,60.040855 
	C46.323273,60.031204 46.155533,60.026878 45.926224,59.669373 
	C44.404385,59.289230 42.934963,59.150127 41.486523,59.268257 
	C40.158051,59.376606 38.862350,59.881073 37.533718,59.994583 
	C36.033398,60.122761 34.512440,60.009388 32.571785,60.000771 
	C28.055979,59.999825 23.968178,60.039650 19.882145,59.972225 
	C18.753048,59.953594 16.862663,59.939617 16.623419,59.373413 
	C14.584450,54.547970 10.987791,56.722122 7.598877,57.245518 
	C7.231906,57.522507 7.085756,57.736538 6.763041,58.009514 
	C6.534019,58.032623 6.075380,58.072495 5.661505,58.065407 
	C4.696578,58.106354 4.145526,58.154388 3.272367,58.152649 
	C2.300173,58.068584 1.650086,58.034294 1.000000,58.000000 
M58.438999,48.603500 
	C59.285038,48.741653 60.131081,48.879803 61.362446,49.083702 
	C61.362446,49.083702 61.748947,49.142170 62.051086,49.505222 
	C62.419003,49.348663 62.786915,49.192104 63.922974,49.016712 
	C64.952583,49.005077 65.982201,48.993443 67.466629,48.982555 
	C67.466629,48.982555 67.920776,48.957756 68.865837,48.985310 
	C72.180809,48.988712 75.503227,48.854897 78.808624,49.034527 
	C82.043663,49.210331 84.976463,49.173874 85.907310,45.105770 
	C85.240585,45.060230 84.589355,45.015747 83.941971,44.323265 
	C83.322823,43.920895 82.703682,43.518528 81.425941,43.060711 
	C80.891289,43.377258 80.356636,43.693806 79.361900,44.244255 
	C78.910561,44.489391 78.459221,44.734528 77.749634,44.577545 
	C77.547562,44.320900 77.295464,44.130474 76.608780,43.458355 
	C75.741371,43.314903 74.873955,43.171448 73.243607,43.014244 
	C72.480690,43.024891 71.717766,43.035534 70.327194,43.010628 
	C69.544136,43.201057 68.761078,43.391487 67.436699,43.767433 
	C67.283913,43.881626 67.131126,43.995815 66.284119,43.999001 
	C65.832397,43.874203 65.380684,43.749405 64.483917,43.222095 
	C63.663250,43.175232 62.842583,43.128372 61.280666,43.046036 
	C60.538593,43.047413 59.796520,43.048790 58.602055,43.216789 
	C58.315037,43.390774 58.119236,43.637218 57.303986,43.873924 
	C56.828831,43.900448 56.353672,43.926971 55.501541,43.923405 
	C55.501541,43.923405 55.125381,43.884380 55.040184,43.241901 
	C54.700462,42.493351 54.360741,41.744801 53.669357,40.498943 
	C53.099026,40.317886 52.528698,40.136826 51.583057,39.382942 
	C51.039845,40.631519 50.496632,41.880093 49.983772,43.921265 
	C50.003998,44.983772 50.024227,46.046284 50.012897,47.511341 
	C50.012897,47.511341 50.030567,47.914742 50.479980,48.506332 
	C52.648735,48.339180 54.817490,48.172031 57.486343,48.042480 
	C57.649738,48.077454 57.813137,48.112431 58.438999,48.603500 
z"/>
<path fill="#1D263B" opacity="1.000000" stroke="none" 
	d="
M1.000000,34.000000 
	C1.000000,30.307091 1.000000,26.614182 1.292766,22.304153 
	C1.995746,20.453512 2.405960,19.219988 2.896548,17.775829 
	C2.976922,17.565197 3.035302,17.118095 3.284348,17.015720 
	C3.726354,16.619314 3.919315,16.325281 4.416692,15.895109 
	C8.107361,13.481277 11.493614,11.203587 15.163401,9.136068 
	C15.676809,10.004926 15.906686,10.663610 15.947888,11.579559 
	C14.127892,13.537197 12.496571,15.237572 10.491228,16.974918 
	C4.837767,24.600885 4.487711,33.252319 13.402207,41.650047 
	C10.964196,41.513508 8.956912,41.272034 6.975094,41.016464 
	C7.000561,41.002369 6.975563,41.054951 6.900840,40.839844 
	C6.672117,40.349506 6.451021,40.147827 6.008377,39.716309 
	C4.235950,37.608612 2.617975,35.804306 1.000000,34.000000 
z"/>
<path fill="#F2FDFF" opacity="1.000000" stroke="none" 
	d="
M1.000000,3.000000 
	C0.387769,-0.085014 2.730574,1.036792 4.000079,1.033828 
	C24.499968,0.985972 45.000000,1.000000 65.500000,1.000000 
	C73.333336,1.000000 81.166878,0.975711 88.999626,1.043378 
	C89.669121,1.049161 90.333336,1.666668 90.762177,2.477717 
	C90.524353,2.955433 90.047401,2.982570 89.581718,2.889266 
	C74.419655,2.878087 59.723278,2.960213 44.649479,3.033378 
	C43.519035,3.065055 42.766010,3.105694 41.556019,3.092621 
	C37.366558,3.379665 33.634064,3.720421 29.550201,3.896342 
	C27.168245,3.521091 25.137665,3.310674 22.760471,3.055066 
	C21.949394,3.040183 21.484932,3.070492 20.577339,3.063705 
	C17.772812,3.063521 15.411413,3.100432 12.615395,3.099527 
	C10.436860,3.087754 8.692947,3.113798 6.528230,3.090493 
	C4.404951,3.027430 2.702475,3.013715 1.000000,3.000000 
z"/>
<path fill="#98B6FB" opacity="1.000000" stroke="none" 
	d="
M6.949034,3.139842 
	C8.692947,3.113798 10.436860,3.087754 12.861023,3.339038 
	C15.355138,4.398736 17.169004,5.181105 18.903591,6.301311 
	C18.799709,7.314629 18.775108,7.990110 18.522896,8.876181 
	C18.098690,9.150690 17.902096,9.214611 17.818937,9.002409 
	C17.655668,8.466875 17.378962,8.207466 16.768915,7.851204 
	C15.917006,8.144866 15.398437,8.535381 14.879868,8.925897 
	C11.493614,11.203587 8.107361,13.481277 4.169019,15.999310 
	C3.423054,16.532467 3.229178,16.825281 3.035302,17.118095 
	C3.035302,17.118095 2.976922,17.565197 2.593883,17.779400 
	C1.807230,17.995733 1.403615,17.997868 1.000000,18.000000 
	C1.000000,13.643101 1.000000,9.286201 1.398798,4.465035 
	C3.514742,3.713794 5.231888,3.426818 6.949034,3.139842 
z"/>
<path fill="#699DCB" opacity="1.000000" stroke="none" 
	d="
M53.965714,66.922729 
	C53.977524,67.352829 53.989338,67.782936 53.543011,68.588821 
	C35.723248,68.976402 18.361624,68.988197 1.000000,69.000000 
	C1.000000,68.555664 1.000000,68.111328 1.198146,67.208237 
	C1.705211,66.606697 1.887401,66.367439 2.187908,66.022308 
	C2.432954,66.012894 2.923328,66.021629 2.999828,65.937439 
	C3.076327,65.853249 3.301208,65.818756 3.350448,66.147476 
	C4.249174,66.618935 5.098659,66.761673 6.353609,66.937317 
	C7.570157,66.912361 8.381239,66.854492 9.508392,66.822037 
	C10.451891,66.779060 11.079318,66.710670 12.099297,66.752274 
	C13.028736,66.852127 13.565622,66.841980 14.502087,66.880974 
	C16.244469,66.935188 17.587273,66.940269 19.223484,66.966743 
	C19.712366,66.979645 19.907839,66.971146 20.464699,66.976700 
	C21.548403,66.984398 22.270718,66.978035 23.224508,66.948662 
	C23.455982,66.925659 23.921024,66.912491 24.277676,66.950836 
	C25.111464,66.967018 25.588596,66.944847 26.285229,66.900314 
	C26.504728,66.877960 26.921289,66.732384 27.366985,66.804672 
	C30.210745,66.832184 32.608810,66.787392 35.370934,66.809570 
	C36.472897,66.895279 37.210800,66.914032 38.311356,66.954468 
	C39.155685,66.927879 39.637360,66.879623 40.466133,66.863495 
	C41.507645,66.867142 42.202065,66.838661 43.247589,66.875580 
	C44.072548,66.947868 44.546398,66.954750 45.392433,66.984467 
	C46.511372,67.004684 47.258133,67.002060 48.338196,67.002853 
	C49.115788,67.001740 49.560085,66.997200 50.401291,66.995636 
	C51.854038,66.973312 52.909874,66.948021 53.965714,66.922729 
z"/>
<path fill="#98B7F9" opacity="1.000000" stroke="none" 
	d="
M1.000000,34.466118 
	C2.617975,35.804306 4.235950,37.608612 5.994844,39.972275 
	C6.415696,40.706070 6.695630,40.880508 6.975563,41.054951 
	C6.975563,41.054951 7.000561,41.002369 7.099957,41.336128 
	C9.488303,43.440044 11.777254,45.210201 14.066206,46.980354 
	C9.994947,47.648029 5.923690,48.315708 1.426216,48.991692 
	C1.000000,44.310745 1.000000,39.621487 1.000000,34.466118 
z"/>
<path fill="#B6D8F8" opacity="1.000000" stroke="none" 
	d="
M1.000000,69.500000 
	C18.361624,68.988197 35.723248,68.976402 53.553436,68.911499 
	C62.716587,68.885132 71.411179,68.911865 80.997101,68.949387 
	C83.594604,68.925354 85.300774,68.890518 87.371727,68.899139 
	C88.470016,68.945259 89.203529,68.947929 90.202759,68.963394 
	C90.645653,68.984123 90.822823,68.992058 91.000000,69.000000 
	C89.675774,69.333336 88.352104,69.955009 87.027237,69.957588 
	C58.351574,70.013336 29.675774,70.000000 1.000000,69.500000 
z"/>
<path fill="#B1DFFF" opacity="1.000000" stroke="none" 
	d="
M91.000000,68.531342 
	C90.822823,68.992058 90.645653,68.984123 90.219971,68.500122 
	C89.930862,49.012798 89.890259,30.001545 89.849663,10.990289 
	C89.877266,10.537173 89.904869,10.084058 89.945908,8.869729 
	C89.988686,6.399867 90.018044,4.691219 90.047401,2.982570 
	C90.047401,2.982570 90.524353,2.955433 90.762177,2.977716 
	C91.000000,24.687561 91.000000,46.375122 91.000000,68.531342 
z"/>
<path fill="#DDF9FF" opacity="1.000000" stroke="none" 
	d="
M1.000000,58.333336 
	C1.650086,58.034294 2.300173,58.068584 3.346983,58.465714 
	C4.483501,59.524448 5.223296,60.220341 5.982038,61.235626 
	C6.036474,61.765015 6.071962,61.975006 6.106291,62.559105 
	C6.059827,63.947365 6.014523,64.961517 5.935992,65.933563 
	C5.902766,65.891464 5.795497,65.890503 5.480561,65.916443 
	C4.544152,65.901169 3.922680,65.859962 3.301208,65.818756 
	C3.301208,65.818756 3.076327,65.853249 3.078736,65.567490 
	C2.387430,63.521152 1.693715,61.760578 1.000000,60.000000 
	C1.000000,59.555553 1.000000,59.111111 1.000000,58.333336 
z"/>
<path fill="#6796BC" opacity="1.000000" stroke="none" 
	d="
M1.000000,60.428459 
	C1.693715,61.760578 2.387430,63.521152 3.002237,65.651680 
	C2.923328,66.021629 2.432954,66.012894 1.951682,66.037857 
	C1.470409,66.062820 1.000000,66.000000 1.000000,66.000000 
	C1.000000,64.285645 1.000000,62.571281 1.000000,60.428459 
z"/>
<path fill="#A0B5F5" opacity="1.000000" stroke="none" 
	d="
M6.528230,3.090493 
	C5.231888,3.426818 3.514742,3.713794 1.398798,4.000385 
	C1.000000,4.000000 1.000000,3.500000 1.000000,3.250000 
	C2.702475,3.013715 4.404951,3.027430 6.528230,3.090493 
z"/>
<path fill="#9AB6EC" opacity="1.000000" stroke="none" 
	d="
M1.000000,18.400028 
	C1.403615,17.997868 1.807230,17.995733 2.513510,17.990032 
	C2.405960,19.219988 1.995746,20.453512 1.292766,21.843517 
	C1.000000,20.933352 1.000000,19.866701 1.000000,18.400028 
z"/>
<path fill="#ACD3F6" opacity="1.000000" stroke="none" 
	d="
M1.000000,66.250000 
	C1.000000,66.000000 1.470409,66.062820 1.706636,66.047272 
	C1.887401,66.367439 1.705211,66.606697 1.198146,66.874741 
	C1.000000,67.000000 1.000000,66.500000 1.000000,66.250000 
z"/>
<path fill="#9CB5F0" opacity="1.000000" stroke="none" 
	d="
M45.005596,21.992228 
	C44.994411,22.162380 44.983227,22.332531 44.528595,22.752390 
	C42.725254,23.002844 41.365356,23.003592 39.681557,22.847225 
	C38.670753,19.143064 38.670753,19.143064 36.622967,19.730625 
	C35.386272,18.332041 34.385242,17.172039 33.420555,15.771975 
	C33.456902,15.531913 33.577019,15.061407 33.802788,14.834753 
	C34.020710,14.056728 34.012863,13.505360 34.006165,12.980360 
	C34.007313,13.006729 33.956455,13.020875 34.259064,13.158220 
	C34.382820,12.885546 34.203968,12.475528 33.886032,11.737761 
	C31.867691,6.631447 36.288223,7.685130 38.357330,5.956760 
	C39.682873,9.602773 40.845116,12.799615 42.039898,16.336960 
	C43.050156,18.449051 44.027878,20.220638 45.005596,21.992228 
M36.786320,10.754107 
	C36.600212,10.816379 36.414104,10.878650 36.227997,10.940920 
	C36.416073,11.000526 36.604153,11.060133 36.786320,10.754107 
z"/>
<path fill="#96B7F6" opacity="1.000000" stroke="none" 
	d="
M44.902069,30.161533 
	C45.235085,35.829418 45.659206,41.495617 45.764404,47.167728 
	C45.775288,47.754330 43.933693,48.776463 42.871113,48.899181 
	C40.582706,49.163467 38.241852,48.973549 35.517044,48.622742 
	C36.407776,47.183861 37.703915,46.091747 39.266220,45.184177 
	C40.439953,45.598446 42.090000,46.138470 42.143211,46.011150 
	C42.888302,44.228283 43.415482,42.354343 43.995682,40.502563 
	C43.510326,40.322487 43.024967,40.142410 42.539612,39.962334 
	C41.360119,40.973946 40.180630,41.985558 39.004128,42.646332 
	C39.672043,40.864811 40.336967,39.434132 41.303879,37.845985 
	C42.704601,35.179523 43.803333,32.670528 44.902069,30.161533 
z"/>
<path fill="#9BB6F6" opacity="1.000000" stroke="none" 
	d="
M41.001892,38.003448 
	C40.336967,39.434132 39.672043,40.864811 39.003624,42.980122 
	C39.000103,44.109711 39.000080,44.554676 39.000057,44.999638 
	C37.703915,46.091747 36.407776,47.183861 35.056087,48.598358 
	C34.556473,48.935013 34.112408,48.949280 33.309044,48.651413 
	C32.623581,47.887032 32.297417,47.434792 31.966660,46.751785 
	C31.962069,46.521019 31.952766,46.059483 32.123898,45.801201 
	C32.196735,44.695332 32.098442,43.847740 32.000076,43.000076 
	C32.000000,43.000000 31.999771,42.999847 31.953163,42.674915 
	C31.246176,41.261036 30.585796,40.172089 29.957844,39.048401 
	C29.990271,39.013660 30.055811,38.944832 30.424019,38.984959 
	C33.179947,37.637306 35.567661,36.249527 38.082478,35.155445 
	C39.140347,36.300583 40.071117,37.152016 41.001892,38.003448 
z"/>
<path fill="#9EB4F9" opacity="1.000000" stroke="none" 
	d="
M41.303879,37.845985 
	C40.071117,37.152016 39.140347,36.300583 38.266769,34.805107 
	C38.884464,30.442158 39.444965,26.723248 40.005463,23.004337 
	C41.365356,23.003592 42.725254,23.002844 44.489418,23.005150 
	C45.238041,23.751007 45.582394,24.493813 45.624382,25.730442 
	C45.192692,27.141455 45.063366,28.058645 44.934044,28.975834 
	C44.934044,28.975834 45.002552,28.982920 44.774868,29.040257 
	C44.702473,29.385210 44.857758,29.672827 45.013042,29.960443 
	C45.013042,29.960443 44.950512,30.055296 44.926292,30.108414 
	C43.803333,32.670528 42.704601,35.179523 41.303879,37.845985 
z"/>
<path fill="#6299CB" opacity="1.000000" stroke="none" 
	d="
M7.767241,57.146721 
	C10.987791,56.722122 14.584450,54.547970 16.623419,59.373413 
	C16.862663,59.939617 18.753048,59.953594 19.882145,59.972225 
	C23.968178,60.039650 28.055979,59.999825 32.574440,60.352314 
	C33.017448,61.172760 33.029129,61.641369 33.015114,62.323895 
	C32.989418,62.537811 32.902199,62.960617 32.714569,62.963478 
	C32.526943,62.966339 32.152100,62.947807 31.911156,62.678829 
	C30.480253,62.307255 29.290293,62.204659 27.805157,62.081886 
	C27.312771,62.065277 27.115559,62.068840 26.494087,62.038452 
	C24.369083,62.060390 22.668341,62.116287 20.758114,62.121689 
	C20.548628,62.071194 20.118071,62.089470 19.811371,62.075256 
	C19.300247,62.071419 19.095825,62.081787 18.502998,62.055229 
	C17.074228,61.992050 16.033859,61.965794 14.957062,61.643497 
	C14.351714,60.896709 13.782795,60.445965 13.129157,59.705841 
	C12.996646,59.259033 12.976568,59.084518 12.893092,58.949078 
	C12.813165,58.819393 12.667380,58.730293 12.550541,58.623356 
	C11.859604,59.782768 11.168667,60.942184 10.437044,62.169865 
	C9.982325,61.799320 9.492209,61.399933 9.008980,60.649452 
	C8.599657,59.247814 8.183449,58.197269 7.767241,57.146721 
z"/>
<path fill="#6699C7" opacity="1.000000" stroke="none" 
	d="
M89.511513,11.072268 
	C89.890259,30.001545 89.930862,49.012798 89.954247,68.487320 
	C89.203529,68.947929 88.470016,68.945259 87.368652,68.684479 
	C87.000801,68.426353 86.996338,67.995422 86.996338,67.995422 
	C87.663895,65.851097 88.908600,63.706444 88.907372,61.562508 
	C88.897827,44.976345 88.644737,28.390347 88.500999,11.804003 
	C88.499146,11.589375 88.939445,11.370916 89.511513,11.072268 
z"/>
<path fill="#1B2741" opacity="1.000000" stroke="none" 
	d="
M14.410966,47.001221 
	C11.777254,45.210201 9.488303,43.440044 7.074489,41.350227 
	C8.956912,41.272034 10.964196,41.513508 13.706322,41.825935 
	C17.833879,42.663578 21.226597,43.430271 24.648281,44.512764 
	C24.739944,45.247276 24.802641,45.665989 24.796242,46.271248 
	C24.727146,46.457798 24.827597,46.842777 24.825317,46.897507 
	C24.823036,46.952232 24.926561,46.988068 24.926561,46.988068 
	C24.926561,46.988068 24.530682,46.980824 23.997673,47.007648 
	C22.650970,47.302319 21.837275,47.570160 21.023579,47.838001 
	C18.934294,47.566029 16.845011,47.294056 14.410966,47.001221 
z"/>
<path fill="#91B8F9" opacity="1.000000" stroke="none" 
	d="
M45.308865,21.705257 
	C44.027878,20.220638 43.050156,18.449051 42.372063,16.150717 
	C43.111855,13.962852 44.035183,12.255384 43.881302,10.651252 
	C43.637833,8.113226 42.672722,5.644426 42.012989,3.146332 
	C42.766010,3.105694 43.519035,3.065055 44.749252,3.248820 
	C45.420490,3.739167 45.674568,3.921446 45.988678,4.020060 
	C45.863163,9.819468 45.737648,15.618877 45.308865,21.705257 
z"/>
<path fill="#6699C7" opacity="1.000000" stroke="none" 
	d="
M46.458344,4.014754 
	C45.674568,3.921446 45.420490,3.739167 45.126678,3.257781 
	C59.723278,2.960213 74.419655,2.878087 89.581718,2.889266 
	C90.018044,4.691219 89.988686,6.399867 89.909241,8.530665 
	C89.341415,7.443571 88.823692,5.934327 88.163391,4.009449 
	C74.444473,4.009449 60.686241,4.009449 46.458344,4.014754 
z"/>
<path fill="#6C9BC7" opacity="1.000000" stroke="none" 
	d="
M78.007881,44.979660 
	C78.459221,44.734528 78.910561,44.489391 79.909653,44.185448 
	C80.882248,44.147591 81.307083,44.168541 81.944839,44.410908 
	C82.751213,44.745304 83.344673,44.858284 83.938126,44.971268 
	C84.589355,45.015747 85.240585,45.060230 85.907310,45.105770 
	C84.976463,49.173874 82.043663,49.210331 78.808624,49.034527 
	C75.503227,48.854897 72.180809,48.988712 68.425323,48.767990 
	C67.984810,48.550671 68.015030,48.139240 68.358208,48.103432 
	C69.815414,47.431694 70.929443,46.795773 72.167603,46.355019 
	C72.518883,46.777710 72.792061,46.910816 73.321037,46.964226 
	C73.530823,46.978947 73.951843,46.966686 74.273415,46.981491 
	C75.022354,47.007687 75.449715,47.019081 76.057152,47.244057 
	C76.827438,46.631645 77.417664,45.805653 78.007881,44.979660 
z"/>
<path fill="#6299C9" opacity="1.000000" stroke="none" 
	d="
M33.040810,62.109978 
	C33.029129,61.641369 33.017448,61.172760 33.003113,60.352608 
	C34.512440,60.009388 36.033398,60.122761 37.533718,59.994583 
	C38.862350,59.881073 40.158051,59.376606 41.486523,59.268257 
	C42.934963,59.150127 44.404385,59.289230 45.631973,59.691906 
	C45.203495,60.088116 45.007710,60.108620 44.520119,60.099548 
	C43.842266,60.117035 43.456211,60.164104 42.782745,60.321732 
	C41.788380,61.686703 41.081432,62.941113 40.055065,64.058075 
	C39.125179,63.621361 38.514721,63.322102 37.692165,63.004112 
	C37.480072,62.985378 37.058460,62.925518 36.849388,62.629196 
	C35.440483,62.258575 34.240646,62.184277 33.040810,62.109978 
z"/>
<path fill="#B3DDFD" opacity="1.000000" stroke="none" 
	d="
M53.961639,66.671928 
	C52.909874,66.948021 51.854038,66.973312 50.392811,66.580841 
	C49.992657,64.777412 49.997898,63.391762 50.301910,61.954201 
	C51.004547,61.890591 51.408413,61.878891 51.982571,62.165115 
	C52.728920,63.617138 53.304977,64.771233 53.881035,65.925323 
	C53.906544,66.090591 53.932056,66.255859 53.961639,66.671928 
z"/>
<path fill="#D0F6FF" opacity="1.000000" stroke="none" 
	d="
M63.154831,49.035553 
	C62.786915,49.192104 62.419003,49.348663 61.981377,48.898331 
	C61.942066,46.860870 61.972473,45.430298 62.248089,44.099571 
	C62.692692,44.486153 62.892082,44.772888 63.082195,45.371460 
	C63.472782,46.017830 63.872650,46.352367 64.272514,46.686905 
	C64.479813,46.149067 64.687111,45.611225 64.921745,44.711632 
	C64.942383,44.108124 64.935677,43.866364 64.928963,43.624603 
	C65.380684,43.749405 65.832397,43.874203 66.627625,44.392735 
	C66.988647,45.467903 67.006172,46.149338 66.708084,46.959023 
	C65.313255,47.736702 64.234039,48.386127 63.154831,49.035553 
z"/>
<path fill="#B8E0FB" opacity="1.000000" stroke="none" 
	d="
M49.953415,43.128666 
	C50.496632,41.880093 51.039845,40.631519 51.525101,39.844482 
	C51.939243,40.952866 52.411343,41.599709 53.024918,42.454147 
	C53.457222,43.062160 53.748055,43.462570 54.011440,44.186363 
	C53.952713,44.723835 53.921440,44.937923 53.583023,45.065704 
	C52.168392,44.362480 51.060905,43.745575 49.953415,43.128666 
z"/>
<path fill="#719FC8" opacity="1.000000" stroke="none" 
	d="
M55.125381,43.884380 
	C55.125381,43.884380 55.501541,43.923405 55.721096,44.277290 
	C56.227692,45.438576 56.514729,46.245979 56.853050,47.290199 
	C56.904327,47.527020 56.986244,48.004879 56.986244,48.004879 
	C54.817490,48.172031 52.648735,48.339180 50.626251,48.251518 
	C51.859787,47.655922 52.947048,47.315140 54.028389,46.998131 
	C54.022469,47.021900 53.974472,47.031723 54.288986,46.882545 
	C54.728996,45.828480 54.854488,44.923584 55.016029,43.984787 
	C55.052074,43.950882 55.125381,43.884380 55.125381,43.884380 
z"/>
<path fill="#95BCDF" opacity="1.000000" stroke="none" 
	d="
M62.002880,43.999725 
	C61.972473,45.430298 61.942066,46.860870 61.830307,48.716805 
	C61.748947,49.142170 61.362446,49.083702 61.064068,48.803116 
	C60.475765,48.317696 60.185841,48.112862 59.932564,47.689468 
	C59.969215,47.470913 59.963757,47.027729 59.981163,46.698189 
	C59.695728,45.616394 59.392887,44.864140 59.074059,43.846699 
	C59.056870,43.404400 59.055660,43.227287 59.054447,43.050171 
	C59.796520,43.048790 60.538593,43.047413 61.643265,43.292908 
	C62.005867,43.539776 62.002880,43.999725 62.002880,43.999725 
z"/>
<path fill="#6799C7" opacity="1.000000" stroke="none" 
	d="
M49.968594,43.524963 
	C51.060905,43.745575 52.168392,44.362480 53.593159,45.378670 
	C53.931782,46.195877 53.953129,46.613800 53.974472,47.031723 
	C53.974472,47.031723 54.022469,47.021900 53.628799,46.983475 
	C52.171574,46.999634 51.108013,47.054211 50.044453,47.108791 
	C50.024227,46.046284 50.003998,44.983772 49.968594,43.524963 
z"/>
<path fill="#6397C6" opacity="1.000000" stroke="none" 
	d="
M51.812279,61.867191 
	C51.408413,61.878891 51.004547,61.890591 50.051796,61.952026 
	C49.502907,62.001759 49.002956,61.996521 48.895943,61.766006 
	C48.543041,61.308094 48.297153,61.080700 48.158291,60.617935 
	C48.510021,59.922314 48.754726,59.462063 48.999428,59.001812 
	C49.791016,59.011581 50.582603,59.021351 51.715321,59.393818 
	C51.980030,60.444927 51.903603,61.133339 51.817986,61.832863 
	C51.808792,61.843975 51.812279,61.867191 51.812279,61.867191 
z"/>
<path fill="#7F9DCA" opacity="1.000000" stroke="none" 
	d="
M48.051266,60.853302 
	C48.297153,61.080700 48.543041,61.308094 48.620232,61.775169 
	C48.268639,62.033031 48.085739,62.051220 47.623543,62.230110 
	C47.192741,63.238243 47.041237,64.085678 46.699837,64.953758 
	C46.509937,64.974396 46.133869,64.907127 46.059296,64.557861 
	C45.593784,62.848778 45.202854,61.488953 44.811920,60.129128 
	C45.007710,60.108620 45.203495,60.088116 45.693539,60.045082 
	C46.155533,60.026878 46.323273,60.031204 46.857025,60.246078 
	C47.437843,60.716675 47.713921,60.848900 48.051266,60.853302 
z"/>
<path fill="#BFE2FA" opacity="1.000000" stroke="none" 
	d="
M67.023705,46.830772 
	C67.006172,46.149338 66.988647,45.467903 66.974731,44.448238 
	C67.131126,43.995815 67.283913,43.881626 67.839241,44.007767 
	C68.837845,44.577766 69.433907,44.907436 69.988007,45.534782 
	C69.302383,46.601391 68.658707,47.370316 68.015030,48.139240 
	C68.015030,48.139240 67.984810,48.550671 67.952789,48.754211 
	C67.920776,48.957756 67.466629,48.982555 67.229507,48.624649 
	C67.002815,47.788090 67.013260,47.309429 67.023705,46.830772 
z"/>
<path fill="#8BA9DA" opacity="1.000000" stroke="none" 
	d="
M31.952766,46.059483 
	C31.952766,46.059483 31.962069,46.521019 31.662373,46.782501 
	C30.882721,47.382751 30.402763,47.721523 29.922806,48.060295 
	C28.425335,47.888596 26.927860,47.716896 25.178474,47.266632 
	C24.926561,46.988068 24.823036,46.952232 25.217930,46.946930 
	C26.801538,46.615463 27.990252,46.289303 29.526215,45.976273 
	C30.566566,46.012760 31.259666,46.036121 31.952766,46.059483 
z"/>
<path fill="#78A2C7" opacity="1.000000" stroke="none" 
	d="
M73.111252,46.949505 
	C72.792061,46.910816 72.518883,46.777710 72.084702,46.062027 
	C71.591133,45.043900 71.304581,44.513931 71.008049,43.749126 
	C70.998062,43.514290 70.954849,43.046181 70.954849,43.046181 
	C71.717766,43.035534 72.480690,43.024891 73.609818,43.245331 
	C73.976021,43.476418 73.982582,43.926384 73.708984,44.126701 
	C73.327339,45.201180 73.219292,46.075344 73.111252,46.949505 
z"/>
<path fill="#CDF7FF" opacity="1.000000" stroke="none" 
	d="
M53.929756,65.515121 
	C53.304977,64.771233 52.728920,63.617138 51.982571,62.165115 
	C51.812279,61.867191 51.808792,61.843975 52.086761,61.759933 
	C52.870632,61.163494 53.376534,60.651104 53.882439,60.138710 
	C53.914452,61.794113 53.946468,63.449516 53.929756,65.515121 
z"/>
<path fill="#7296B6" opacity="1.000000" stroke="none" 
	d="
M5.963090,60.916229 
	C5.223296,60.220341 4.483501,59.524448 3.669091,58.515488 
	C4.145526,58.154388 4.696578,58.106354 5.612413,58.418743 
	C5.972496,59.491520 5.967793,60.203873 5.963090,60.916229 
z"/>
<path fill="#DEF4FF" opacity="1.000000" stroke="none" 
	d="
M7.598877,57.245518 
	C8.183449,58.197269 8.599657,59.247814 8.763708,60.649353 
	C8.511552,61.000347 8.021025,60.999466 7.754938,60.793919 
	C7.323256,59.721046 7.157659,58.853725 6.992063,57.986401 
	C7.085756,57.736538 7.231906,57.522507 7.598877,57.245518 
z"/>
<path fill="#BCE2FE" opacity="1.000000" stroke="none" 
	d="
M77.878754,44.778603 
	C77.417664,45.805653 76.827438,46.631645 76.106468,46.910843 
	C75.977455,45.916645 75.979202,45.469231 76.093292,44.801693 
	C76.406593,44.305443 76.669151,44.113674 76.993332,44.006264 
	C77.295464,44.130474 77.547562,44.320900 77.878754,44.778603 
z"/>
<path fill="#669DCF" opacity="1.000000" stroke="none" 
	d="
M86.597794,67.996254 
	C86.996338,67.995422 87.000801,68.426353 87.003876,68.641022 
	C85.300774,68.890518 83.594604,68.925354 81.466911,68.908783 
	C82.763344,68.570618 84.481293,68.283852 86.597794,67.996254 
z"/>
<path fill="#96B7F6" opacity="1.000000" stroke="none" 
	d="
M30.145859,48.314243 
	C30.402763,47.721523 30.882721,47.382751 31.666965,47.013268 
	C32.297417,47.434792 32.623581,47.887032 32.976421,48.628433 
	C32.125034,48.801128 31.246973,48.684662 30.145859,48.314243 
z"/>
<path fill="#B8E6FE" opacity="1.000000" stroke="none" 
	d="
M56.801769,47.053379 
	C56.514729,46.245979 56.227692,45.438576 55.909584,44.292336 
	C56.353672,43.926971 56.828831,43.900448 57.642853,44.287903 
	C58.021584,45.444881 58.061443,46.187878 57.776455,46.965305 
	C57.234997,47.017616 57.018383,47.035500 56.801769,47.053379 
z"/>
<path fill="#719FC8" opacity="1.000000" stroke="none" 
	d="
M54.038891,43.862980 
	C53.748055,43.462570 53.457222,43.062160 53.151009,42.190098 
	C53.430756,41.477718 53.725887,41.236984 54.021019,40.996250 
	C54.360741,41.744801 54.700462,42.493351 55.082783,43.563141 
	C55.125381,43.884380 55.052074,43.950882 54.781059,43.944408 
	C54.510044,43.937935 54.038891,43.862980 54.038891,43.862980 
z"/>
<path fill="#719ABE" opacity="1.000000" stroke="none" 
	d="
M53.845188,40.747597 
	C53.725887,41.236984 53.430756,41.477718 53.009533,41.982498 
	C52.411343,41.599709 51.939243,40.952866 51.712757,40.130894 
	C52.528698,40.136826 53.099026,40.317886 53.845188,40.747597 
z"/>
<path fill="#A1CBF3" opacity="1.000000" stroke="none" 
	d="
M76.801056,43.732307 
	C76.669151,44.113674 76.406593,44.305443 75.777466,44.788971 
	C74.927963,45.018780 74.506630,45.041183 74.051025,44.780064 
	C74.005356,44.306492 73.993973,44.116440 73.982582,43.926384 
	C73.982582,43.926384 73.976021,43.476418 73.991287,43.252205 
	C74.873955,43.171448 75.741371,43.314903 76.801056,43.732307 
z"/>
<path fill="#6299C9" opacity="1.000000" stroke="none" 
	d="
M48.158291,60.617935 
	C47.713921,60.848900 47.437843,60.716675 47.108662,60.251404 
	C47.546143,59.547054 48.097992,59.047928 48.824638,58.775307 
	C48.754726,59.462063 48.510021,59.922314 48.158291,60.617935 
z"/>
<path fill="#A0C8EE" opacity="1.000000" stroke="none" 
	d="
M70.641022,43.028404 
	C70.954849,43.046181 70.998062,43.514290 70.760376,43.879181 
	C70.358452,44.575081 70.194206,44.906090 70.029968,45.237106 
	C69.433907,44.907436 68.837845,44.577766 68.109901,43.915009 
	C68.761078,43.391487 69.544136,43.201057 70.641022,43.028404 
z"/>
<path fill="#C0E1FD" opacity="1.000000" stroke="none" 
	d="
M6.763041,58.009514 
	C7.157659,58.853725 7.323256,59.721046 7.753293,61.040756 
	C8.017734,61.493137 7.999138,61.986462 7.680924,62.001045 
	C6.944291,62.072086 6.525870,62.128540 6.107450,62.184994 
	C6.071962,61.975006 6.036474,61.765015 5.982039,61.235626 
	C5.967793,60.203873 5.972496,59.491520 6.026289,58.425827 
	C6.075380,58.072495 6.534019,58.032623 6.763041,58.009514 
z"/>
<path fill="#9BC8EF" opacity="1.000000" stroke="none" 
	d="
M62.248089,44.099571 
	C62.002880,43.999725 62.005867,43.539776 62.013893,43.310642 
	C62.842583,43.128372 63.663250,43.175232 64.706436,43.423347 
	C64.935677,43.866364 64.942383,44.108124 64.622063,44.683228 
	C63.893856,45.030922 63.492664,45.045273 63.091476,45.059628 
	C62.892082,44.772888 62.692692,44.486153 62.248089,44.099571 
z"/>
<path fill="#75A3C7" opacity="1.000000" stroke="none" 
	d="
M66.708084,46.959023 
	C67.013260,47.309429 67.002815,47.788090 67.002090,48.624275 
	C65.982201,48.993443 64.952583,49.005077 63.538902,49.026131 
	C64.234039,48.386127 65.313255,47.736702 66.708084,46.959023 
z"/>
<path fill="#9ACDF7" opacity="1.000000" stroke="none" 
	d="
M53.802692,59.864014 
	C53.376534,60.651104 52.870632,61.163494 52.095951,61.748817 
	C51.903603,61.133339 51.980030,60.444927 52.110634,59.414230 
	C52.684189,59.244404 53.203568,59.416859 53.802692,59.864014 
z"/>
<path fill="#C3EBFF" opacity="1.000000" stroke="none" 
	d="
M83.940048,44.647266 
	C83.344673,44.858284 82.751213,44.745304 82.050415,44.147202 
	C81.990227,43.480106 82.037376,43.298130 82.084534,43.116158 
	C82.703682,43.518528 83.322823,43.920895 83.940048,44.647266 
z"/>
<path fill="#D8FDFF" opacity="1.000000" stroke="none" 
	d="
M50.028675,47.310066 
	C51.108013,47.054211 52.171574,46.999634 53.634724,46.959709 
	C52.947048,47.315140 51.859787,47.655922 50.401543,47.955719 
	C50.030567,47.914742 50.012897,47.511341 50.028675,47.310066 
z"/>
<path fill="#729FC1" opacity="1.000000" stroke="none" 
	d="
M58.101303,46.930874 
	C58.061443,46.187878 58.021584,45.444881 57.998188,44.329010 
	C58.119236,43.637218 58.315037,43.390774 58.828251,43.133480 
	C59.055660,43.227287 59.056870,43.404400 59.042419,44.194756 
	C58.977943,45.507767 58.929119,46.207539 58.686035,46.929367 
	C58.491776,46.951424 58.101307,46.930874 58.101303,46.930874 
z"/>
<path fill="#719FC8" opacity="1.000000" stroke="none" 
	d="
M59.895916,47.908024 
	C60.185841,48.112862 60.475765,48.317696 60.871407,48.770245 
	C60.131081,48.879803 59.285038,48.741653 58.524979,48.311581 
	C59.039276,47.982449 59.467598,47.945236 59.895916,47.908024 
z"/>
<path fill="#23354F" opacity="1.000000" stroke="none" 
	d="
M21.371140,47.899246 
	C21.837275,47.570160 22.650970,47.302319 23.805462,47.055069 
	C23.337072,47.370605 22.527887,47.665550 21.371140,47.899246 
z"/>
<path fill="#D3FAFF" opacity="1.000000" stroke="none" 
	d="
M59.932564,47.689468 
	C59.467598,47.945236 59.039276,47.982449 58.293747,48.083534 
	C57.813137,48.112431 57.649738,48.077454 57.236294,48.023682 
	C56.986244,48.004879 56.904327,47.527020 56.853050,47.290199 
	C57.018383,47.035500 57.234997,47.017616 57.776459,46.965305 
	C58.101307,46.930874 58.491776,46.951424 58.956520,46.964699 
	C59.602093,46.994560 59.782925,47.011147 59.963757,47.027729 
	C59.963757,47.027729 59.969215,47.470913 59.932564,47.689468 
z"/>
<path fill="#6788B9" opacity="1.000000" stroke="none" 
	d="
M45.219559,28.775259 
	C45.063366,28.058645 45.192692,27.141455 45.635513,26.039427 
	C45.801033,26.761286 45.653053,27.667986 45.219559,28.775259 
z"/>
<path fill="#96C0E8" opacity="1.000000" stroke="none" 
	d="
M81.755234,43.088432 
	C82.037376,43.298130 81.990227,43.480106 81.837502,43.925789 
	C81.307083,44.168541 80.882248,44.147591 80.139694,44.068497 
	C80.356636,43.693806 80.891289,43.377258 81.755234,43.088432 
z"/>
<path fill="#6788B9" opacity="1.000000" stroke="none" 
	d="
M44.998779,29.707699 
	C44.857758,29.672827 44.702473,29.385210 44.744263,29.024048 
	C44.955738,29.118652 44.970127,29.286804 44.998779,29.707699 
z"/>
<path fill="#9BB6F6" opacity="1.000000" stroke="none" 
	d="
M24.619312,44.196968 
	C21.226597,43.430271 17.833879,42.663578 14.137049,41.721001 
	C4.487711,33.252319 4.837767,24.600885 10.814181,17.016010 
	C12.019468,17.378193 12.527781,17.736258 12.998418,18.481537 
	C8.757388,27.234058 11.966021,34.495907 19.387661,39.159664 
	C21.219635,37.099884 23.101675,34.983807 25.471088,32.319756 
	C27.187349,34.799809 28.621580,36.872318 30.055811,38.944832 
	C30.055811,38.944832 29.990271,39.013660 29.545959,39.022163 
	C26.868544,39.366882 24.635441,39.703098 21.384676,40.192532 
	C24.718094,42.336815 26.844774,43.704845 28.737236,45.052406 
	C28.503017,45.031940 28.033930,45.064617 27.682642,45.012276 
	C26.427341,44.705612 25.523327,44.451290 24.619312,44.196968 
z"/>
<path fill="#9FB3EB" opacity="1.000000" stroke="none" 
	d="
M13.036095,18.094322 
	C12.527781,17.736258 12.019468,17.378193 11.188202,16.979038 
	C12.496571,15.237572 14.127892,13.537197 16.267708,11.415267 
	C17.539164,10.552330 18.302130,10.110949 19.173717,9.952477 
	C19.799578,10.513054 20.316816,10.790720 20.749449,11.394968 
	C18.121927,13.845807 15.579011,15.970065 13.036095,18.094322 
z"/>
<path fill="#212E4F" opacity="1.000000" stroke="none" 
	d="
M19.065096,9.669567 
	C18.302130,10.110949 17.539164,10.552330 16.456381,11.158003 
	C15.906686,10.663610 15.676809,10.004926 15.163401,9.136068 
	C15.398437,8.535381 15.917006,8.144866 16.776073,8.120755 
	C17.312883,8.750950 17.509192,9.014741 17.705502,9.278532 
	C17.902096,9.214611 18.098690,9.150690 18.630768,9.118613 
	C18.999199,9.323495 19.032146,9.496531 19.065096,9.669567 
z"/>
<path fill="#9AB6EC" opacity="1.000000" stroke="none" 
	d="
M3.284348,17.015720 
	C3.229178,16.825281 3.423054,16.532467 3.864603,16.135452 
	C3.919315,16.325281 3.726354,16.619314 3.284348,17.015720 
z"/>
<path fill="#1B2741" opacity="1.000000" stroke="none" 
	d="
M6.900840,40.839844 
	C6.695630,40.880508 6.415696,40.706070 6.149294,40.275665 
	C6.451021,40.147827 6.672117,40.349506 6.900840,40.839844 
z"/>
<path fill="#9BB7F9" opacity="1.000000" stroke="none" 
	d="
M41.556019,3.092621 
	C42.672722,5.644426 43.637833,8.113226 43.881302,10.651252 
	C44.035183,12.255384 43.111855,13.962852 42.339523,15.810214 
	C40.845116,12.799615 39.682873,9.602773 38.357330,5.956760 
	C36.288223,7.685130 31.867691,6.631447 33.845325,11.974920 
	C33.943699,12.539830 33.956455,13.020875 33.956455,13.020875 
	C33.956455,13.020875 34.007313,13.006729 33.715279,13.054508 
	C32.918602,13.716836 32.413952,14.331385 31.675789,15.017839 
	C31.137859,15.276443 30.979330,15.548234 30.635151,16.073929 
	C25.504835,18.252291 25.966721,14.996832 26.486084,12.023774 
	C30.927338,10.520062 29.923700,7.102285 29.901573,4.061176 
	C33.634064,3.720421 37.366558,3.379665 41.556019,3.092621 
z"/>
<path fill="#1D2638" opacity="1.000000" stroke="none" 
	d="
M29.550201,3.896342 
	C29.923700,7.102285 30.927338,10.520062 26.128784,11.868341 
	C23.877508,11.519823 22.355782,11.294104 20.834055,11.068386 
	C20.316816,10.790720 19.799578,10.513054 19.173717,9.952478 
	C19.032146,9.496531 18.999199,9.323495 18.858377,8.908026 
	C18.775108,7.990110 18.799709,7.314629 19.173912,6.222414 
	C20.016514,5.534350 20.509512,5.263020 21.303696,4.972049 
	C22.105614,4.335025 22.606348,3.717641 23.107082,3.100258 
	C25.137665,3.310674 27.168245,3.521091 29.550201,3.896342 
z"/>
<path fill="#A0B5F5" opacity="1.000000" stroke="none" 
	d="
M21.002510,4.991688 
	C20.509512,5.263020 20.016514,5.534350 19.253193,5.884578 
	C17.169004,5.181105 15.355138,4.398736 13.295643,3.376855 
	C15.411413,3.100432 17.772812,3.063521 20.570333,3.376985 
	C21.005142,4.148803 21.003826,4.570245 21.002510,4.991688 
z"/>
<path fill="#9AACDA" opacity="1.000000" stroke="none" 
	d="
M21.303696,4.972049 
	C21.003826,4.570245 21.005142,4.148803 21.013462,3.414081 
	C21.484932,3.070492 21.949394,3.040183 22.760469,3.055065 
	C22.606348,3.717641 22.105614,4.335025 21.303696,4.972049 
z"/>
<path fill="#7B8FBF" opacity="1.000000" stroke="none" 
	d="
M17.818937,9.002409 
	C17.509192,9.014741 17.312883,8.750950 17.109415,8.217607 
	C17.378962,8.207466 17.655668,8.466875 17.818937,9.002409 
z"/>
<path fill="#D8F4FF" opacity="1.000000" stroke="none" 
	d="
M7.999138,61.986462 
	C7.999138,61.986462 8.017734,61.493137 8.019379,61.246300 
	C8.021025,60.999466 8.511552,61.000347 8.756823,61.000446 
	C9.492209,61.399933 9.982325,61.799320 10.437044,62.169865 
	C11.168667,60.942184 11.859604,59.782768 12.550541,58.623356 
	C12.667380,58.730293 12.813165,58.819393 12.893092,58.949078 
	C12.976568,59.084518 12.996646,59.259033 13.038458,60.090569 
	C12.634123,62.584450 12.235771,64.404221 11.795193,66.325584 
	C11.752968,66.427170 11.706745,66.642288 11.706745,66.642288 
	C11.079318,66.710670 10.451891,66.779060 9.449951,66.609161 
	C9.075439,66.370865 8.939425,65.949287 8.925329,65.608704 
	C8.607201,64.174232 8.303169,63.080349 7.999138,61.986462 
z"/>
<path fill="#B6DDFD" opacity="1.000000" stroke="none" 
	d="
M14.993492,61.939537 
	C16.033859,61.965794 17.074228,61.992050 18.538586,62.282070 
	C18.962574,62.545834 19.004375,63.004444 18.650200,63.019066 
	C17.602705,63.332577 16.909388,63.631462 15.152739,64.388741 
	C17.221563,64.733299 18.091722,64.878220 18.960495,65.344070 
	C18.949430,66.091782 18.939753,66.518562 18.930077,66.945343 
	C17.587273,66.940269 16.244469,66.935188 14.480686,66.683960 
	C14.059708,66.437820 14.030442,66.040138 14.046666,65.671021 
	C14.373091,64.181107 14.683291,63.060322 14.993492,61.939537 
z"/>
<path fill="#B7E0F7" opacity="1.000000" stroke="none" 
	d="
M40.374489,64.195526 
	C41.081432,62.941113 41.788380,61.686703 42.813782,60.649559 
	C43.465824,62.150078 43.799408,63.433323 43.919144,64.852875 
	C43.396893,65.166374 43.208427,65.429337 43.071121,66.034225 
	C42.967052,66.463654 42.931767,66.636917 42.896484,66.810181 
	C42.202065,66.838661 41.507645,66.867142 40.442242,66.668076 
	C40.071259,66.440521 40.037674,66.045624 40.089245,65.735535 
	C40.218708,65.015465 40.296600,64.605499 40.374489,64.195526 
z"/>
<path fill="#B0D4F7" opacity="1.000000" stroke="none" 
	d="
M35.006874,66.742607 
	C32.608810,66.787392 30.210745,66.832184 27.377604,66.635605 
	C26.942526,66.394249 26.971191,66.053886 27.207855,65.949913 
	C27.633335,65.564613 27.822151,65.283279 28.305744,64.993660 
	C28.796267,64.967087 28.992012,64.948807 29.426521,64.928551 
	C29.665283,64.926575 30.143936,64.873764 30.437063,64.927567 
	C31.535181,64.635208 32.340172,64.289047 33.387493,63.945225 
	C33.629826,63.947556 34.114471,63.938946 34.114471,63.938946 
	C34.114471,63.938946 34.599186,63.941708 34.716652,64.299049 
	C34.878677,65.156143 34.923241,65.655891 34.979294,66.302269 
	C34.990780,66.448898 35.006874,66.742607 35.006874,66.742607 
z"/>
<path fill="#C6EDFF" opacity="1.000000" stroke="none" 
	d="
M26.971191,66.053886 
	C26.971191,66.053886 26.942526,66.394249 26.931908,66.563316 
	C26.921289,66.732384 26.504728,66.877960 26.246716,66.537735 
	C25.758167,65.254066 25.527634,64.310623 25.297102,63.367176 
	C25.014145,63.382118 24.731188,63.397064 24.448231,63.412010 
	C24.272495,64.578835 24.096760,65.745667 23.921024,66.912491 
	C23.921024,66.912491 23.455982,66.925659 23.181507,66.585579 
	C22.291265,65.199951 21.675497,64.154404 21.032312,62.874924 
	C21.004898,62.640991 20.967598,62.172184 20.967598,62.172184 
	C22.668341,62.116287 24.369083,62.060390 26.522438,62.434128 
	C26.973764,63.927135 26.972477,64.990509 26.971191,66.053886 
z"/>
<path fill="#99B1D1" opacity="1.000000" stroke="none" 
	d="
M47.902840,62.069412 
	C48.085739,62.051220 48.268639,62.033031 48.727245,62.005684 
	C49.002956,61.996521 49.502907,62.001759 49.753021,62.003933 
	C49.997898,63.391762 49.992657,64.777412 49.995899,66.577866 
	C49.560085,66.997200 49.115788,67.001740 48.342743,66.746506 
	C48.005939,66.315971 47.997883,66.145210 47.990681,65.583694 
	C47.961975,64.151772 47.932407,63.110592 47.902840,62.069412 
z"/>
<path fill="#7DA0BD" opacity="1.000000" stroke="none" 
	d="
M21.059727,63.108852 
	C21.675497,64.154404 22.291265,65.199951 22.950035,66.608582 
	C22.270718,66.978035 21.548403,66.984398 20.436607,66.864479 
	C20.047129,66.738197 19.985302,66.514977 20.275940,66.271393 
	C20.730963,65.054825 20.895346,64.081841 21.059727,63.108852 
z"/>
<path fill="#92B5D0" opacity="1.000000" stroke="none" 
	d="
M24.277676,66.950836 
	C24.096760,65.745667 24.272495,64.578835 24.448231,63.412010 
	C24.731188,63.397064 25.014145,63.382118 25.297102,63.367176 
	C25.527634,64.310623 25.758167,65.254066 26.027216,66.560089 
	C25.588596,66.944847 25.111464,66.967018 24.277676,66.950836 
z"/>
<path fill="#88ACCC" opacity="1.000000" stroke="none" 
	d="
M19.985302,66.514977 
	C19.985302,66.514977 20.047129,66.738197 20.075220,66.850418 
	C19.907839,66.971146 19.712366,66.979645 19.223484,66.966743 
	C18.939753,66.518562 18.949430,66.091782 18.995098,65.008308 
	C19.022182,63.902557 19.013279,63.453503 19.004375,63.004444 
	C19.004375,63.004444 18.962574,62.545834 18.926987,62.318993 
	C19.095825,62.081787 19.300247,62.071419 19.769714,62.511070 
	C20.018272,64.145721 20.001787,65.330353 19.985302,66.514977 
z"/>
<path fill="#AFCFF3" opacity="1.000000" stroke="none" 
	d="
M47.989822,65.974442 
	C47.997883,66.145210 48.005939,66.315971 48.009445,66.743080 
	C47.258133,67.002060 46.511372,67.004684 45.396393,66.724533 
	C45.043854,66.268967 45.059525,66.096176 45.311016,65.829849 
	C45.742512,65.459923 45.938190,65.183525 46.133873,64.907127 
	C46.133869,64.907127 46.509937,64.974396 46.831200,65.180695 
	C47.431583,65.582817 47.710701,65.778625 47.989822,65.974442 
z"/>
<path fill="#ACD3F6" opacity="1.000000" stroke="none" 
	d="
M3.350448,66.147476 
	C3.922680,65.859962 4.544152,65.901169 5.543015,66.166901 
	C5.929652,66.562416 5.938898,66.733406 5.948144,66.904404 
	C5.098659,66.761673 4.249174,66.618935 3.350448,66.147476 
z"/>
<path fill="#95C0E7" opacity="1.000000" stroke="none" 
	d="
M6.353609,66.937317 
	C5.938898,66.733406 5.929652,66.562416 5.857952,66.140961 
	C5.795497,65.890503 5.902766,65.891464 6.308189,65.944496 
	C7.455550,65.981453 8.197488,65.965370 8.939425,65.949287 
	C8.939425,65.949287 9.075439,66.370865 9.133881,66.583740 
	C8.381239,66.854492 7.570157,66.912361 6.353609,66.937317 
z"/>
<path fill="#B0DBFA" opacity="1.000000" stroke="none" 
	d="
M35.370934,66.809570 
	C35.006874,66.742607 34.990780,66.448898 35.279324,66.270065 
	C35.766762,66.062614 35.965660,66.033981 36.450302,65.995499 
	C37.115295,65.969574 37.494545,65.953499 37.906464,66.185211 
	C37.939133,66.433006 37.948700,66.932793 37.948700,66.932793 
	C37.210800,66.914032 36.472897,66.895279 35.370934,66.809570 
z"/>
<path fill="#98C1E6" opacity="1.000000" stroke="none" 
	d="
M14.030442,66.040138 
	C14.030442,66.040138 14.059708,66.437820 14.081108,66.634827 
	C13.565622,66.841980 13.028736,66.852127 12.099297,66.752274 
	C11.706745,66.642288 11.752968,66.427170 12.158103,66.256592 
	C13.052306,66.070717 13.541374,66.055428 14.030442,66.040138 
z"/>
<path fill="#93BFE5" opacity="1.000000" stroke="none" 
	d="
M38.311356,66.954468 
	C37.948700,66.932793 37.939133,66.433006 37.974655,66.180229 
	C38.010178,65.927452 38.129063,65.995041 38.446945,65.993729 
	C39.189114,66.010147 39.613392,66.027885 40.037674,66.045624 
	C40.037674,66.045624 40.071259,66.440521 40.095146,66.635941 
	C39.637360,66.879623 39.155685,66.927879 38.311356,66.954468 
z"/>
<path fill="#99C0E3" opacity="1.000000" stroke="none" 
	d="
M45.075199,65.923378 
	C45.059525,66.096176 45.043854,66.268967 45.024216,66.701691 
	C44.546398,66.954750 44.072548,66.947868 43.247589,66.875580 
	C42.931767,66.636917 42.967052,66.463654 43.382359,66.085739 
	C44.188972,65.895409 44.615562,65.909721 45.045433,65.932800 
	C45.048706,65.941574 45.075199,65.923378 45.075199,65.923378 
z"/>
<path fill="#779EC2" opacity="1.000000" stroke="none" 
	d="
M8.925329,65.608704 
	C8.197488,65.965370 7.455550,65.981453 6.341415,65.986603 
	C6.014523,64.961517 6.059827,63.947365 6.106291,62.559105 
	C6.525870,62.128540 6.944291,62.072086 7.680924,62.001045 
	C8.303169,63.080349 8.607201,64.174232 8.925329,65.608704 
z"/>
<path fill="#1B263F" opacity="1.000000" stroke="none" 
	d="
M20.749449,11.394968 
	C22.355782,11.294104 23.877508,11.519823 25.756535,11.900974 
	C25.966721,14.996832 25.504835,18.252291 30.645981,16.475075 
	C31.006006,17.509821 31.023672,18.312233 31.005901,19.479971 
	C30.409180,21.250114 29.847895,22.654932 28.921991,24.972343 
	C26.346178,21.451708 24.300962,18.656292 22.146124,15.711046 
	C17.721888,19.132208 14.907567,22.807655 16.812658,28.372143 
	C17.247858,29.643295 18.173920,30.746391 18.874062,31.926834 
	C20.038195,31.020813 21.228775,30.146296 22.357838,29.198500 
	C23.213942,28.479843 23.991665,27.667816 25.888063,25.869724 
	C27.205975,27.748833 28.544888,29.272131 29.441931,31.021952 
	C31.021439,34.103016 32.455681,33.412804 34.302849,31.051905 
	C34.656071,30.644779 34.757832,30.330765 34.929176,29.802002 
	C34.998764,29.587252 35.047535,29.138411 35.290398,29.036785 
	C35.633926,28.629301 35.734589,28.323441 35.906471,27.796698 
	C35.977688,27.575815 36.043972,27.116413 36.380188,26.914051 
	C36.755169,25.153753 36.793930,23.595819 36.900055,21.695614 
	C36.931160,20.891964 36.894897,20.430586 36.858635,19.969208 
	C38.670753,19.143064 38.670753,19.143064 39.681557,22.847225 
	C39.444965,26.723248 38.884464,30.442158 38.139671,34.511406 
	C35.567661,36.249527 33.179947,37.637306 30.424019,38.984959 
	C28.621580,36.872318 27.187349,34.799809 25.471088,32.319756 
	C23.101675,34.983807 21.219635,37.099884 19.387661,39.159664 
	C11.966021,34.495907 8.757388,27.234058 12.998418,18.481537 
	C15.579011,15.970065 18.121927,13.845807 20.749449,11.394968 
z"/>
<path fill="#9AB7F9" opacity="1.000000" stroke="none" 
	d="
M35.047535,29.138411 
	C35.047535,29.138411 34.998764,29.587252 34.731789,29.939600 
	C34.228252,30.528439 34.090446,30.812794 34.051392,31.145018 
	C32.455681,33.412804 31.021439,34.103016 29.441931,31.021952 
	C28.544888,29.272131 27.205975,27.748833 25.888063,25.869724 
	C23.991665,27.667816 23.213942,28.479843 22.357838,29.198500 
	C21.228775,30.146296 20.038195,31.020813 18.874062,31.926834 
	C18.173920,30.746391 17.247858,29.643295 16.812658,28.372143 
	C14.907567,22.807655 17.721888,19.132208 22.146124,15.711046 
	C24.300962,18.656292 26.346178,21.451708 28.921991,24.972343 
	C29.847895,22.654932 30.409180,21.250114 31.309608,19.334896 
	C32.227242,17.887011 32.805725,16.949524 33.384212,16.012037 
	C34.385242,17.172039 35.386272,18.332041 36.622967,19.730625 
	C36.894897,20.430586 36.931160,20.891964 36.655140,21.975857 
	C36.243229,24.104387 36.143600,25.610399 36.043972,27.116413 
	C36.043972,27.116413 35.977688,27.575815 35.713009,27.934376 
	C35.217567,28.528692 35.083969,28.810516 35.047535,29.138411 
z"/>
<path fill="#122344" opacity="1.000000" stroke="none" 
	d="
M33.420555,15.771975 
	C32.805725,16.949524 32.227242,17.887011 31.345045,18.969570 
	C31.023672,18.312233 31.006006,17.509821 30.977512,16.306263 
	C30.979330,15.548234 31.137859,15.276443 32.091694,15.061187 
	C33.019749,15.042222 33.298382,15.051815 33.577019,15.061407 
	C33.577019,15.061407 33.456902,15.531913 33.420555,15.771975 
z"/>
<path fill="#223866" opacity="1.000000" stroke="none" 
	d="
M33.802788,14.834753 
	C33.298382,15.051815 33.019749,15.042222 32.325207,14.989281 
	C32.413952,14.331385 32.918602,13.716836 33.714134,13.028138 
	C34.012863,13.505360 34.020710,14.056728 33.802788,14.834753 
z"/>
<path fill="#94AADD" opacity="1.000000" stroke="none" 
	d="
M36.789276,10.936924 
	C36.604153,11.060133 36.416073,11.000526 36.227997,10.940920 
	C36.414104,10.878650 36.600212,10.816379 36.789276,10.936924 
z"/>
<path fill="#223866" opacity="1.000000" stroke="none" 
	d="
M34.259064,13.158220 
	C33.956455,13.020875 33.943699,12.539830 33.984406,12.302670 
	C34.203968,12.475528 34.382820,12.885546 34.259064,13.158220 
z"/>
<path fill="#9EB4F9" opacity="1.000000" stroke="none" 
	d="
M39.266220,45.184177 
	C39.000080,44.554676 39.000103,44.109711 39.000633,43.330959 
	C40.180630,41.985558 41.360119,40.973946 42.539612,39.962334 
	C43.024967,40.142410 43.510326,40.322487 43.995682,40.502563 
	C43.415482,42.354343 42.888302,44.228283 42.143211,46.011150 
	C42.090000,46.138470 40.439953,45.598446 39.266220,45.184177 
z"/>
<path fill="#96B7F6" opacity="1.000000" stroke="none" 
	d="
M28.971458,45.072876 
	C26.844774,43.704845 24.718094,42.336815 21.384676,40.192532 
	C24.635441,39.703098 26.868544,39.366882 29.513533,39.056904 
	C30.585796,40.172089 31.246176,41.261036 31.818535,42.728416 
	C31.682123,43.189751 31.633732,43.272659 31.585342,43.355564 
	C31.723612,43.237095 31.861883,43.118622 32.000153,43.000153 
	C32.098442,43.847740 32.196735,44.695332 32.123898,45.801201 
	C31.259666,46.036121 30.566566,46.012760 29.461929,45.756466 
	C29.050390,45.523533 28.971458,45.072872 28.971458,45.072876 
z"/>
<path fill="#6F9CC4" opacity="1.000000" stroke="none" 
	d="
M14.046666,65.671021 
	C13.541374,66.055428 13.052306,66.070717 12.200329,66.154999 
	C12.235771,64.404221 12.634123,62.584450 13.123175,60.379948 
	C13.782795,60.445965 14.351714,60.896709 14.957063,61.643497 
	C14.683291,63.060322 14.373091,64.181107 14.046666,65.671021 
z"/>
<path fill="#BAE3FF" opacity="1.000000" stroke="none" 
	d="
M29.187759,64.930527 
	C28.992012,64.948807 28.796267,64.967087 28.280140,64.630310 
	C28.006615,63.550850 28.053474,62.826454 28.100332,62.102058 
	C29.290293,62.204659 30.480253,62.307255 31.781563,62.911865 
	C31.601204,63.599571 31.309494,63.785263 30.848131,63.745003 
	C30.181572,63.989540 29.684666,64.460037 29.187759,64.930527 
z"/>
<path fill="#C1ECFF" opacity="1.000000" stroke="none" 
	d="
M34.599190,63.941711 
	C34.599186,63.941708 34.114471,63.938946 34.114471,63.938946 
	C34.114471,63.938946 33.629826,63.947556 33.328484,63.699272 
	C32.985493,63.287537 32.943844,63.124077 32.902199,62.960617 
	C32.902199,62.960617 32.989418,62.537811 33.015114,62.323891 
	C34.240646,62.184277 35.440483,62.258575 36.835953,62.653488 
	C37.031586,62.974098 36.999489,63.017696 36.719093,63.027039 
	C36.251991,63.047752 36.065285,63.059128 35.622360,63.139694 
	C35.110497,63.453163 34.854843,63.697437 34.599190,63.941711 
z"/>
<path fill="#8CADCD" opacity="1.000000" stroke="none" 
	d="
M32.714569,62.963478 
	C32.943844,63.124077 32.985493,63.287537 33.086151,63.696945 
	C32.340172,64.289047 31.535181,64.635208 30.519131,64.726898 
	C30.494509,64.234390 30.731081,64.067238 31.017784,63.970955 
	C31.309494,63.785263 31.601204,63.599571 32.022507,63.180840 
	C32.152100,62.947807 32.526943,62.966339 32.714569,62.963478 
z"/>
<path fill="#DDFEFF" opacity="1.000000" stroke="none" 
	d="
M20.275942,66.271393 
	C20.001787,65.330353 20.018272,64.145721 20.076414,62.525284 
	C20.118071,62.089470 20.548628,62.071194 20.758114,62.121689 
	C20.967598,62.172184 21.004898,62.640991 21.032314,62.874924 
	C20.895346,64.081841 20.730963,65.054825 20.275942,66.271393 
z"/>
<path fill="#8DB3D2" opacity="1.000000" stroke="none" 
	d="
M27.805157,62.081886 
	C28.053474,62.826454 28.006615,63.550850 27.985361,64.638596 
	C27.822151,65.283279 27.633335,65.564613 27.207855,65.949913 
	C26.972477,64.990509 26.973764,63.927135 26.946701,62.468086 
	C27.115559,62.068840 27.312771,62.065277 27.805157,62.081886 
z"/>
<path fill="#6077AE" opacity="1.000000" stroke="none" 
	d="
M28.737238,45.052406 
	C28.971458,45.072872 29.050390,45.523533 29.114677,45.743340 
	C27.990252,46.289303 26.801538,46.615463 25.220211,46.892200 
	C24.827597,46.842777 24.727146,46.457798 25.147270,46.240616 
	C26.389572,45.703831 27.211752,45.384224 28.033932,45.064621 
	C28.033930,45.064617 28.503017,45.031940 28.737238,45.052406 
z"/>
<path fill="#8296D2" opacity="1.000000" stroke="none" 
	d="
M27.682644,45.012276 
	C27.211752,45.384224 26.389572,45.703831 25.216366,46.054070 
	C24.802641,45.665989 24.739944,45.247276 24.648281,44.512764 
	C25.523327,44.451290 26.427341,44.705612 27.682644,45.012276 
z"/>
<path fill="#CBF1FE" opacity="1.000000" stroke="none" 
	d="
M69.988007,45.534782 
	C70.194206,44.906090 70.358452,44.575081 70.770370,44.114017 
	C71.304581,44.513931 71.591133,45.043900 71.960579,45.866856 
	C70.929443,46.795773 69.815414,47.431694 68.358208,48.103432 
	C68.658707,47.370316 69.302383,46.601391 69.988007,45.534782 
z"/>
<path fill="#83AACA" opacity="1.000000" stroke="none" 
	d="
M74.085297,45.063587 
	C74.506630,45.041183 74.927963,45.018780 75.665115,45.009098 
	C75.979202,45.469231 75.977455,45.916645 75.926399,46.697266 
	C75.449715,47.019081 75.022354,47.007687 74.306885,46.665070 
	C74.040962,45.910423 74.063133,45.487003 74.085297,45.063587 
z"/>
<path fill="#CCF5FF" opacity="1.000000" stroke="none" 
	d="
M74.051025,44.780064 
	C74.063133,45.487003 74.040962,45.910423 73.985321,46.650261 
	C73.951843,46.966686 73.530823,46.978947 73.321037,46.964226 
	C73.219292,46.075344 73.327339,45.201180 73.708984,44.126701 
	C73.993973,44.116440 74.005356,44.306492 74.051025,44.780064 
z"/>
<path fill="#D6F3FF" opacity="1.000000" stroke="none" 
	d="
M46.059296,64.557861 
	C45.938190,65.183525 45.742512,65.459923 45.311016,65.829849 
	C45.075199,65.923378 45.048706,65.941574 44.959518,65.689316 
	C44.624550,65.196892 44.378773,64.956734 44.132992,64.716568 
	C43.799408,63.433323 43.465824,62.150078 43.101200,60.539001 
	C43.456211,60.164104 43.842266,60.117035 44.520119,60.099548 
	C45.202854,61.488953 45.593784,62.848778 46.059296,64.557861 
z"/>
<path fill="#CEEEFF" opacity="1.000000" stroke="none" 
	d="
M37.941986,65.932434 
	C37.494545,65.953499 37.115295,65.969574 36.430466,65.664383 
	C36.159084,64.902107 36.193279,64.461090 36.398994,63.889809 
	C36.775455,63.548096 36.918446,63.300816 36.999489,63.017696 
	C36.999489,63.017696 37.031586,62.974098 37.045021,62.949806 
	C37.058460,62.925518 37.480072,62.985378 37.730885,63.374924 
	C38.030819,64.507996 38.079941,65.251518 38.129063,65.995041 
	C38.129063,65.995041 38.010178,65.927452 37.941986,65.932434 
z"/>
<path fill="#6F93BC" opacity="1.000000" stroke="none" 
	d="
M38.446945,65.993729 
	C38.079941,65.251518 38.030819,64.507996 37.942978,63.393654 
	C38.514721,63.322102 39.125179,63.621361 40.055069,64.058075 
	C40.296600,64.605499 40.218708,65.015465 40.089245,65.735535 
	C39.613392,66.027885 39.189114,66.010147 38.446945,65.993729 
z"/>
<path fill="#76A1C9" opacity="1.000000" stroke="none" 
	d="
M63.082195,45.371460 
	C63.492664,45.045273 63.893856,45.030922 64.594727,45.044975 
	C64.687111,45.611225 64.479813,46.149067 64.272514,46.686905 
	C63.872650,46.352367 63.472782,46.017830 63.082195,45.371460 
z"/>
<path fill="#D2FBFF" opacity="1.000000" stroke="none" 
	d="
M54.011440,44.186363 
	C54.038891,43.862980 54.510044,43.937935 54.745010,43.978313 
	C54.854488,44.923584 54.728996,45.828480 54.288986,46.882545 
	C53.953129,46.613800 53.931782,46.195877 53.900299,45.464985 
	C53.921440,44.937923 53.952713,44.723835 54.011440,44.186363 
z"/>
<path fill="#B6DAF8" opacity="1.000000" stroke="none" 
	d="
M59.981163,46.698189 
	C59.782925,47.011147 59.602093,46.994560 59.150780,46.942642 
	C58.929119,46.207539 58.977943,45.507767 59.058407,44.459946 
	C59.392887,44.864140 59.695728,45.616394 59.981163,46.698189 
z"/>
<path fill="#E4F2FF" opacity="1.000000" stroke="none" 
	d="
M47.990681,65.583694 
	C47.710701,65.778625 47.431583,65.582817 47.021095,65.160065 
	C47.041237,64.085678 47.192741,63.238243 47.623543,62.230110 
	C47.932407,63.110592 47.961975,64.151772 47.990681,65.583694 
z"/>
<path fill="#A2C8EA" opacity="1.000000" stroke="none" 
	d="
M18.650200,63.019066 
	C19.013279,63.453503 19.022182,63.902557 18.996483,64.687378 
	C18.091722,64.878220 17.221563,64.733299 15.152739,64.388741 
	C16.909388,63.631462 17.602705,63.332577 18.650200,63.019066 
z"/>
<path fill="#AFCFF3" opacity="1.000000" stroke="none" 
	d="
M43.919144,64.852875 
	C44.378773,64.956734 44.624550,65.196892 44.956245,65.680542 
	C44.615562,65.909721 44.188972,65.895409 43.451141,65.829582 
	C43.208427,65.429337 43.396893,65.166374 43.919144,64.852875 
z"/>
<path fill="#739FBA" opacity="1.000000" stroke="none" 
	d="
M36.227474,64.020081 
	C36.193279,64.461090 36.159084,64.902107 36.144722,65.674225 
	C35.965660,66.033981 35.766762,66.062614 35.267838,66.123444 
	C34.923241,65.655891 34.878677,65.156143 34.716652,64.299057 
	C34.854843,63.697437 35.110497,63.453163 35.692894,63.383148 
	C36.088921,63.711636 36.158195,63.865856 36.227474,64.020081 
z"/>
<path fill="#A1C4E3" opacity="1.000000" stroke="none" 
	d="
M30.848131,63.745003 
	C30.731081,64.067238 30.494509,64.234390 30.226004,64.673096 
	C30.143936,64.873764 29.665283,64.926575 29.426521,64.928551 
	C29.684666,64.460037 30.181572,63.989540 30.848131,63.745003 
z"/>
<path fill="#9CB5F0" opacity="1.000000" stroke="none" 
	d="
M36.380188,26.914051 
	C36.143600,25.610399 36.243229,24.104387 36.587776,22.318130 
	C36.793930,23.595819 36.755169,25.153753 36.380188,26.914051 
z"/>
<path fill="#9CB5F0" opacity="1.000000" stroke="none" 
	d="
M35.290398,29.036785 
	C35.083969,28.810516 35.217567,28.528692 35.641792,28.155258 
	C35.734589,28.323441 35.633926,28.629301 35.290398,29.036785 
z"/>
<path fill="#9CB5F0" opacity="1.000000" stroke="none" 
	d="
M34.302849,31.051905 
	C34.090446,30.812794 34.228252,30.528439 34.662201,30.154350 
	C34.757832,30.330765 34.656071,30.644779 34.302849,31.051905 
z"/>
<path fill="#9BB6F6" opacity="1.000000" stroke="none" 
	d="
M32.000076,43.000076 
	C31.861883,43.118622 31.723612,43.237095 31.585342,43.355564 
	C31.633732,43.272659 31.682123,43.189751 31.865143,43.053345 
	C31.999771,42.999847 32.000000,43.000000 32.000076,43.000076 
z"/>
<path fill="#B0DBFA" opacity="1.000000" stroke="none" 
	d="
M36.398994,63.889809 
	C36.158195,63.865856 36.088921,63.711636 35.949108,63.313957 
	C36.065285,63.059128 36.251991,63.047752 36.719093,63.027039 
	C36.918446,63.300816 36.775455,63.548096 36.398994,63.889809 
z"/>
</svg>